<?xml version="1.0" encoding="utf-8"?>
<!-- Generator: Adobe Illustrator 28.1.0, SVG Export Plug-In . SVG Version: 6.00 Build 0)  -->
<svg version="1.1" id="Livello_1" xmlns="http://www.w3.org/2000/svg" xmlns:xlink="http://www.w3.org/1999/xlink" x="0px" y="0px"
	 viewBox="0 0 250 250" style="enable-background:new 0 0 250 250;" xml:space="preserve">
<style type="text/css">
	.st0{fill:#FFFFFF;}
</style>
<g>
	<g>
		<path class="st0" d="M98.7,247.1c-30.8,0-61.5,0-92.3,0c0-81.1,0-162.2,0-243.3c79,0,158.1,0,237.2,0c0,81.1,0,162.2,0,243.3
			c-48.2,0-96.5,0-144.8,0c0-0.1,0.1-0.2,0.1-0.3c15.9-27.6,31.8-55.1,47.6-82.7c0.3-0.5,0.6-0.7,1.2-0.7c12.7,0,25.4,0,38.1,0
			c18.9,0,37.8,0,56.6,0c0.3,0,0.6,0,1,0C212.8,110.1,182.1,57,151.4,3.9c-0.2,0.4-0.4,0.6-0.5,0.9c-15.8,27.4-31.5,54.8-47.3,82.1
			c-0.3,0.6-0.7,0.7-1.3,0.7c-14.9,0-29.9,0-44.8,0c-16.7,0-33.3,0-50,0c-0.3,0-0.6,0-1,0c0.2,0.4,0.3,0.6,0.5,0.9
			c30.4,52.6,60.9,105.2,91.3,157.8C98.5,246.6,98.6,246.8,98.7,247.1z"/>
		<path d="M98.7,247.1c-0.1-0.2-0.2-0.5-0.3-0.7C67.9,193.8,37.5,141.2,7.1,88.6c-0.2-0.3-0.3-0.5-0.5-0.9c0.4,0,0.7,0,1,0
			c16.7,0,33.3,0,50,0c14.9,0,29.9,0,44.8,0c0.6,0,1-0.2,1.3-0.7c15.7-27.4,31.5-54.8,47.3-82.1c0.1-0.3,0.3-0.5,0.5-0.9
			c30.8,53.2,61.5,106.2,92.2,159.5c-0.5,0-0.8,0-1,0c-18.9,0-37.8,0-56.6,0c-12.7,0-25.4,0-38.1,0c-0.6,0-0.9,0.2-1.2,0.7
			c-15.9,27.6-31.7,55.1-47.6,82.7c0,0.1-0.1,0.2-0.1,0.3C98.8,247.1,98.7,247.1,98.7,247.1z M151.3,12.4c-0.4,0.6-0.7,1.2-1,1.7
			c-0.8,1.4-1.6,2.8-2.4,4.2c-0.9,1.6-1.9,3.2-2.8,4.8c-1.1,1.9-2.2,3.8-3.2,5.6c-0.6,1.1-1.3,2.2-1.9,3.4c-0.7,1.2-1.4,2.5-2.1,3.7
			c-0.7,1.3-1.5,2.5-2.2,3.8c-0.7,1.2-1.4,2.5-2.1,3.8c-1,1.7-2,3.4-3,5.1c-0.8,1.4-1.6,2.9-2.5,4.3c-0.7,1.1-1.3,2.2-2,3.4
			c-0.7,1.3-1.5,2.6-2.2,3.9c-0.9,1.6-1.9,3.2-2.8,4.8c-0.8,1.5-1.7,2.9-2.5,4.4c-0.7,1.2-1.4,2.4-2.1,3.6s-1.4,2.4-2.1,3.6
			c-1,1.6-1.9,3.3-2.9,4.9c-0.5,0.9-1,1.8-1.6,2.7c-0.6,1.1-1.3,2.2-1.9,3.4c-0.7,1.2-1.4,2.5-2.1,3.7c-0.2,0.3-0.3,0.4-0.6,0.4
			c-0.3,0-0.6,0-1,0c-0.7,0-1.3-0.1-2-0.1c-1.4,0-2.9,0.2-4.3,0.2c-1,0-1.9-0.1-2.9-0.1c-1.4,0-2.7,0.1-4.1,0.1c-2,0-3.9,0-5.9,0
			c-1.5,0-3,0-4.5,0c-2.3,0-4.6,0-6.9,0c-1.9,0-3.7,0-5.6,0c-1.3,0-2.6,0-3.9,0c-2.1,0-4.2,0-6.3,0c-2.5,0-5.1,0-7.6,0
			c-2.7,0-5.4,0-8.1,0c-2,0-3.9,0-5.9,0c-2.5,0-5,0-7.6,0c-4.4,0-8.7,0-13.1,0c-0.5,0-1,0-1.6,0c28.3,48.9,56.5,97.7,84.8,146.7
			c0.5-0.8,0.9-1.4,1.2-2.1c0.7-1.2,1.5-2.5,2.2-3.7c0.7-1.1,1.3-2.3,2-3.4c0.7-1.2,1.4-2.5,2.1-3.7c0.7-1.3,1.5-2.5,2.2-3.8
			c1.1-1.8,2.1-3.7,3.2-5.5c0.6-1.1,1.3-2.2,1.9-3.2c0.5-0.9,1.1-1.9,1.6-2.8c0.6-1.1,1.3-2.2,1.9-3.3c0.5-1,1.1-1.9,1.6-2.9
			c0.6-1.1,1.3-2.2,1.9-3.2c0.7-1.3,1.4-2.5,2.1-3.8c1-1.7,2-3.4,3-5.1c0.5-0.9,1.1-1.8,1.6-2.7c0.6-1.1,1.3-2.3,1.9-3.4
			c0.5-0.8,1-1.7,1.5-2.5c0.7-1.2,1.3-2.3,2-3.5c0.7-1.2,1.4-2.5,2.1-3.7c0.7-1.2,1.5-2.5,2.2-3.7c1-1.8,2-3.6,3.1-5.4
			c0.7-1.3,1.5-2.5,2.1-3.8c0.2-0.4,0.4-0.8,0.7-1.2c0.5-0.7,1.1-1.4,1.5-2.1c0.2-0.3,0.3-0.4,0.7-0.4c1.1,0,2.2,0,3.3-0.2
			c2-0.3,4-0.2,6-0.2c1.4,0,2.9,0,4.3,0c2,0,4,0,6,0c1.4,0,2.8,0,4.3,0c2.6,0,5.2,0,7.8,0c2,0,4.1,0,6.1,0c2.5,0,5.1,0,7.6,0
			c3.1,0,6.3,0,9.4,0c3.2,0,6.3,0,9.5,0c3.2,0,6.4,0,9.6,0c3.1,0,6.3,0,9.4,0c2,0,4,0,6,0c0.5,0,1.1,0,1.7,0
			c-0.1-0.2-0.1-0.4-0.2-0.5C207.7,109.9,179.5,61.2,151.3,12.4z"/>
		<path class="st0" d="M151.3,12.4c28.2,48.8,56.4,97.5,84.5,146.2c0.1,0.1,0.1,0.3,0.2,0.5c-0.6,0-1.2,0-1.7,0c-2,0-4,0-6,0
			c-3.1,0-6.3,0-9.4,0c-3.2,0-6.4,0-9.6,0c-3.2,0-6.3,0-9.5,0c-3.1,0-6.3,0-9.4,0c-2.5,0-5.1,0-7.6,0c-2,0-4.1,0-6.1,0
			c-2.6,0-5.2,0-7.8,0c-1.4,0-2.8,0-4.3,0c-2,0-4,0-6,0c-1.4,0-2.9,0-4.3,0c-2,0-4-0.1-6,0.2c-1.1,0.1-2.2,0.2-3.3,0.2
			c-0.3,0-0.5,0.1-0.7,0.4c-0.5,0.7-1,1.4-1.5,2.1c-0.3,0.4-0.5,0.7-0.7,1.2c-0.6,1.4-1.4,2.6-2.1,3.8c-1,1.8-2,3.6-3.1,5.4
			c-0.7,1.3-1.5,2.5-2.2,3.7c-0.7,1.2-1.4,2.5-2.1,3.7c-0.7,1.2-1.3,2.3-2,3.5c-0.5,0.8-1,1.7-1.5,2.5c-0.6,1.1-1.3,2.3-1.9,3.4
			c-0.5,0.9-1,1.8-1.6,2.7c-1,1.7-2,3.4-3,5.1c-0.7,1.3-1.4,2.5-2.1,3.8c-0.6,1.1-1.2,2.2-1.9,3.2c-0.5,1-1.1,1.9-1.6,2.9
			c-0.6,1.1-1.3,2.2-1.9,3.3c-0.5,0.9-1.1,1.9-1.6,2.8c-0.6,1.1-1.3,2.2-1.9,3.2c-1.1,1.8-2.1,3.7-3.2,5.5c-0.7,1.3-1.5,2.5-2.2,3.8
			c-0.7,1.2-1.4,2.5-2.1,3.7c-0.7,1.1-1.3,2.3-2,3.4c-0.7,1.3-1.4,2.5-2.2,3.7c-0.4,0.7-0.8,1.3-1.2,2.1
			C70.5,189.6,42.3,140.8,14,91.9c0.7,0,1.2,0,1.6,0c4.4,0,8.7,0,13.1,0c2.5,0,5,0,7.6,0c2,0,3.9,0,5.9,0c2.7,0,5.4,0,8.1,0
			c2.5,0,5.1,0,7.6,0c2.1,0,4.2,0,6.3,0c1.3,0,2.6,0,3.9,0c1.9,0,3.7,0,5.6,0c2.3,0,4.6,0,6.9,0c1.5,0,3,0,4.5,0c2,0,3.9,0,5.9,0
			c1.4,0,2.7-0.1,4.1-0.1c1,0,1.9,0.1,2.9,0.1c1.4,0,2.9-0.2,4.3-0.2c0.7,0,1.3,0,2,0.1c0.3,0,0.6,0,1,0c0.3,0,0.5-0.2,0.6-0.4
			c0.7-1.2,1.4-2.5,2.1-3.7c0.6-1.1,1.3-2.2,1.9-3.4c0.5-0.9,1-1.8,1.6-2.7c1-1.6,1.9-3.3,2.9-4.9c0.7-1.2,1.4-2.4,2.1-3.6
			c0.7-1.2,1.4-2.4,2.1-3.6c0.8-1.5,1.7-3,2.5-4.4c0.9-1.6,1.9-3.2,2.8-4.8c0.7-1.3,1.5-2.6,2.2-3.9c0.6-1.1,1.3-2.2,2-3.4
			c0.8-1.4,1.6-2.9,2.5-4.3c1-1.7,2-3.4,3-5.1c0.7-1.2,1.4-2.5,2.1-3.8c0.7-1.3,1.5-2.5,2.2-3.8c0.7-1.2,1.4-2.5,2.1-3.7
			c0.6-1.1,1.3-2.2,1.9-3.4c1.1-1.9,2.2-3.8,3.2-5.6c0.9-1.6,1.9-3.2,2.8-4.8c0.8-1.4,1.6-2.8,2.4-4.2
			C150.6,13.6,150.9,13.1,151.3,12.4z M117.9,120.4c0,0-0.1,0-0.2,0c-2-8-3.9-16-5.9-24c-2,0-4,0-6,0c-3,11.6-5.9,23.2-8.9,34.9
			c2.1,0,4.2,0,6.3,0c1.9-7.1,3.6-14.3,5.5-21.5c0.1,0,0.1,0,0.2,0c1.7,7.2,3.5,14.3,5.2,21.5c1.7,0,3.3,0,5,0
			c0.4-0.8,0.8-1.6,1.2-2.5c2.9-5.8,5.7-11.6,8.6-17.4c0.1-0.2,0.2-0.5,0.5-0.7c0.1,6.8,0.2,13.6,0.3,20.4c0.9,0.2,5.6,0.1,6.1,0
			c0.1-1.2-0.4-34.3-0.6-34.8c-1.6,0-3.2,0-4.8,0c-0.6,0-0.9,0.2-1.1,0.7c-3.7,7.5-7.4,15-11.2,22.6
			C118.2,119.9,118,120.2,117.9,120.4z M128.4,121.1c-0.1,0-0.2,0-0.2,0c-0.2,0.1-0.3,0.2-0.5,0.3c-2.3,1.6-4.2,3.5-5.7,5.9
			c-2.9,4.6-3.9,9.6-2.4,14.9c1.7,6,5.6,10.1,11.8,11.7c2.9,0.7,5.9,0.7,8.9,0.4c3.6-0.4,6.8-1.6,9.8-3.6c0.2-0.1,0.3-0.3,0.6-0.4
			c-1.3-1.7-2.6-3.4-3.9-5.1c-0.2,0.1-0.3,0.2-0.4,0.3c-3.5,2.6-7.4,3.4-11.7,2.7c-4-0.7-6.9-2.9-8.4-6.7c-1.4-3.6-0.9-7.2,1-10.5
			c1-1,1.1-2.3,1-3.6C128.3,125.3,128.4,123.2,128.4,121.1z M59.4,163.5c12.5,0,24.8,0,37.1,0c0.1,0,0.2,0,0.2,0c0,0,0,0,0,0
			c0,0,0,0,0.1-0.1c-0.8-1.3-1.5-2.6-2.3-4c-4.6,0-9.2-0.1-13.7,0c-3.4,0.1-13.2,0.1-13.9-0.2c4.5-8,9.2-15.9,13.7-23.9
			c-0.8-1.4-1.6-2.7-2.4-4.2C71.9,141.8,65.7,152.6,59.4,163.5z M154.7,87.5c0.1,0.2,0.2,0.3,0.2,0.4c0.6,1,1.2,2,1.7,3
			c0.3,0.6,0.7,0.8,1.4,0.8c4.7,0,9.3,0,14,0c3.3,0,6.6,0,10,0c0.4,0,0.8,0,1.4,0.1c-4.4,7.7-8.8,15.2-13.1,22.8
			c0.8,1.4,1.6,2.7,2.4,4.2c6-10.5,12-20.8,18-31.2C178.6,87.5,166.7,87.5,154.7,87.5z M153.1,123.2c-4.6-4.3-9.8-5.9-15.9-5.3
			c0,2.1,0,4.1,0,6.2c4.3-0.6,8.1,0.2,11.1,3.5C149.9,126.2,151.4,124.8,153.1,123.2z"/>
		<path d="M117.9,120.4c0.1-0.3,0.3-0.5,0.4-0.8c3.7-7.5,7.5-15,11.2-22.6c0.3-0.5,0.5-0.7,1.1-0.7c1.6,0,3.2,0,4.8,0
			c0.2,0.5,0.7,33.7,0.6,34.8c-0.5,0.2-5.2,0.2-6.1,0c-0.1-6.8-0.2-13.6-0.3-20.4c-0.3,0.1-0.4,0.4-0.5,0.7
			c-2.9,5.8-5.7,11.6-8.6,17.4c-0.4,0.8-0.8,1.7-1.2,2.5c-1.7,0-3.3,0-5,0c-1.7-7.2-3.5-14.3-5.2-21.5c-0.1,0-0.1,0-0.2,0
			c-1.9,7.2-3.6,14.3-5.5,21.5c-2.1,0-4.2,0-6.3,0c3-11.7,5.9-23.2,8.9-34.9c2,0,4,0,6,0c2,8,3.9,16,5.9,24
			C117.8,120.5,117.9,120.5,117.9,120.4z"/>
		<path d="M128.4,121.1c0,2.1-0.1,4.1,0,6.2c0,1.3,0,2.6-1,3.6c-1.9,3.4-2.4,6.9-1,10.5c1.5,3.8,4.4,6,8.4,6.7
			c4.2,0.7,8.1-0.1,11.7-2.7c0.1-0.1,0.2-0.1,0.4-0.3c1.3,1.7,2.6,3.4,3.9,5.1c-0.2,0.2-0.4,0.3-0.6,0.4c-3,2-6.3,3.2-9.8,3.6
			c-3,0.3-5.9,0.3-8.9-0.4c-6.2-1.6-10.1-5.7-11.8-11.7c-1.5-5.3-0.5-10.2,2.4-14.9c1.5-2.4,3.4-4.3,5.7-5.9
			c0.2-0.1,0.3-0.2,0.5-0.3C128.2,121.1,128.2,121.1,128.4,121.1z"/>
		<path d="M59.4,163.5c6.3-10.9,12.4-21.6,18.7-32.5c0.8,1.5,1.6,2.8,2.4,4.2c-4.5,8-9.2,15.9-13.7,23.9c0.7,0.2,10.5,0.2,13.9,0.2
			c4.6-0.1,9.2,0,13.7,0c0.8,1.4,1.6,2.7,2.3,4c0,0.1,0,0.1-0.1,0.1c0,0,0,0,0,0c-0.1,0-0.2,0-0.2,0
			C84.2,163.5,71.9,163.5,59.4,163.5z"/>
		<path d="M154.7,87.5c12,0,23.9,0,36,0c-6,10.4-12,20.8-18,31.2c-0.8-1.4-1.6-2.8-2.4-4.2c4.3-7.6,8.7-15.1,13.1-22.8
			c-0.6,0-1-0.1-1.4-0.1c-3.3,0-6.6,0-10,0c-4.7,0-9.3,0-14,0c-0.6,0-1-0.1-1.4-0.8c-0.5-1-1.1-2-1.7-3
			C154.8,87.9,154.8,87.8,154.7,87.5z"/>
		<path d="M153.1,123.2c-1.6,1.5-3.2,2.9-4.8,4.4c-3.1-3.3-6.9-4.1-11.1-3.5c0-2.1,0-4.1,0-6.2C143.2,117.4,148.5,119,153.1,123.2z"
			/>
	</g>
</g>
</svg>
